<mxfile host="app.diagrams.net" modified="2022-11-02T09:49:05.282Z" agent="5.0 (Macintosh; Intel Mac OS X 10_15_7) AppleWebKit/537.36 (KHTML, like Gecko) Chrome/107.0.0.0 Safari/537.36" etag="rHLsFlqpXn_-n6orQNg8" version="20.5.1" type="github">
  <diagram id="-gdRt2dsjdJc-sZZEiDr" name="Page-1">
    <mxGraphModel dx="3351" dy="1807" grid="0" gridSize="10" guides="1" tooltips="1" connect="1" arrows="1" fold="1" page="0" pageScale="1" pageWidth="850" pageHeight="1100" math="0" shadow="0">
      <root>
        <mxCell id="0" />
        <mxCell id="1" parent="0" />
        <mxCell id="nXKrIPr9yyu7svm2SS0Z-17" value="" style="edgeStyle=orthogonalEdgeStyle;rounded=0;orthogonalLoop=1;jettySize=auto;html=1;" edge="1" parent="1" source="nXKrIPr9yyu7svm2SS0Z-2" target="nXKrIPr9yyu7svm2SS0Z-16">
          <mxGeometry relative="1" as="geometry" />
        </mxCell>
        <mxCell id="nXKrIPr9yyu7svm2SS0Z-2" value="Start" style="ellipse;whiteSpace=wrap;html=1;" vertex="1" parent="1">
          <mxGeometry x="-169" y="226" width="120" height="80" as="geometry" />
        </mxCell>
        <mxCell id="nXKrIPr9yyu7svm2SS0Z-21" style="edgeStyle=orthogonalEdgeStyle;rounded=0;orthogonalLoop=1;jettySize=auto;html=1;entryX=0;entryY=0.5;entryDx=0;entryDy=0;exitX=0.5;exitY=0;exitDx=0;exitDy=0;" edge="1" parent="1" source="nXKrIPr9yyu7svm2SS0Z-16" target="nXKrIPr9yyu7svm2SS0Z-19">
          <mxGeometry relative="1" as="geometry" />
        </mxCell>
        <mxCell id="nXKrIPr9yyu7svm2SS0Z-23" value="&lt;font style=&quot;font-size: 14px;&quot;&gt;Feature&lt;/font&gt;" style="edgeLabel;html=1;align=center;verticalAlign=middle;resizable=0;points=[];" vertex="1" connectable="0" parent="nXKrIPr9yyu7svm2SS0Z-21">
          <mxGeometry x="-0.1654" y="2" relative="1" as="geometry">
            <mxPoint x="18" y="2" as="offset" />
          </mxGeometry>
        </mxCell>
        <mxCell id="nXKrIPr9yyu7svm2SS0Z-22" style="edgeStyle=orthogonalEdgeStyle;rounded=0;orthogonalLoop=1;jettySize=auto;html=1;entryX=0;entryY=0.5;entryDx=0;entryDy=0;exitX=0.5;exitY=1;exitDx=0;exitDy=0;" edge="1" parent="1" source="nXKrIPr9yyu7svm2SS0Z-16" target="nXKrIPr9yyu7svm2SS0Z-20">
          <mxGeometry relative="1" as="geometry" />
        </mxCell>
        <mxCell id="nXKrIPr9yyu7svm2SS0Z-24" value="Fix" style="edgeLabel;html=1;align=center;verticalAlign=middle;resizable=0;points=[];fontSize=14;" vertex="1" connectable="0" parent="nXKrIPr9yyu7svm2SS0Z-22">
          <mxGeometry x="-0.1726" y="2" relative="1" as="geometry">
            <mxPoint as="offset" />
          </mxGeometry>
        </mxCell>
        <mxCell id="nXKrIPr9yyu7svm2SS0Z-16" value="Task Type" style="rhombus;whiteSpace=wrap;html=1;" vertex="1" parent="1">
          <mxGeometry x="28" y="226" width="113" height="80" as="geometry" />
        </mxCell>
        <mxCell id="nXKrIPr9yyu7svm2SS0Z-26" style="edgeStyle=orthogonalEdgeStyle;rounded=0;orthogonalLoop=1;jettySize=auto;html=1;fontSize=14;" edge="1" parent="1" source="nXKrIPr9yyu7svm2SS0Z-19" target="nXKrIPr9yyu7svm2SS0Z-25">
          <mxGeometry relative="1" as="geometry" />
        </mxCell>
        <mxCell id="nXKrIPr9yyu7svm2SS0Z-28" style="edgeStyle=orthogonalEdgeStyle;rounded=0;orthogonalLoop=1;jettySize=auto;html=1;entryX=0;entryY=0.5;entryDx=0;entryDy=0;fontSize=14;" edge="1" parent="1" source="nXKrIPr9yyu7svm2SS0Z-19" target="nXKrIPr9yyu7svm2SS0Z-29">
          <mxGeometry relative="1" as="geometry">
            <mxPoint x="422" y="249" as="targetPoint" />
          </mxGeometry>
        </mxCell>
        <mxCell id="nXKrIPr9yyu7svm2SS0Z-31" style="edgeStyle=orthogonalEdgeStyle;rounded=0;orthogonalLoop=1;jettySize=auto;html=1;entryX=0;entryY=0.5;entryDx=0;entryDy=0;fontSize=14;" edge="1" parent="1" source="nXKrIPr9yyu7svm2SS0Z-19" target="nXKrIPr9yyu7svm2SS0Z-30">
          <mxGeometry relative="1" as="geometry" />
        </mxCell>
        <mxCell id="nXKrIPr9yyu7svm2SS0Z-19" value="Create Release branch&lt;br&gt;(feature/lcp-app)" style="whiteSpace=wrap;html=1;" vertex="1" parent="1">
          <mxGeometry x="221" y="142" width="137" height="60" as="geometry" />
        </mxCell>
        <mxCell id="nXKrIPr9yyu7svm2SS0Z-49" style="edgeStyle=orthogonalEdgeStyle;rounded=0;orthogonalLoop=1;jettySize=auto;html=1;fontSize=14;entryX=0.5;entryY=1;entryDx=0;entryDy=0;" edge="1" parent="1" source="nXKrIPr9yyu7svm2SS0Z-20" target="nXKrIPr9yyu7svm2SS0Z-73">
          <mxGeometry relative="1" as="geometry" />
        </mxCell>
        <mxCell id="nXKrIPr9yyu7svm2SS0Z-20" value="Create Release branch&lt;br&gt;(fix/shaoyingzhu_xxx)" style="whiteSpace=wrap;html=1;" vertex="1" parent="1">
          <mxGeometry x="912" y="402" width="138" height="62" as="geometry" />
        </mxCell>
        <mxCell id="nXKrIPr9yyu7svm2SS0Z-69" value="" style="edgeStyle=orthogonalEdgeStyle;rounded=0;orthogonalLoop=1;jettySize=auto;html=1;fontSize=14;" edge="1" parent="1" source="nXKrIPr9yyu7svm2SS0Z-25" target="nXKrIPr9yyu7svm2SS0Z-66">
          <mxGeometry relative="1" as="geometry" />
        </mxCell>
        <mxCell id="nXKrIPr9yyu7svm2SS0Z-25" value="Create feature branch&lt;br&gt;(feature/lcp-app/zhiqiangni_app_content)" style="whiteSpace=wrap;html=1;fontSize=14;" vertex="1" parent="1">
          <mxGeometry x="422" y="142" width="273" height="60" as="geometry" />
        </mxCell>
        <mxCell id="nXKrIPr9yyu7svm2SS0Z-71" value="" style="edgeStyle=orthogonalEdgeStyle;rounded=0;orthogonalLoop=1;jettySize=auto;html=1;fontSize=14;" edge="1" parent="1" source="nXKrIPr9yyu7svm2SS0Z-29" target="nXKrIPr9yyu7svm2SS0Z-70">
          <mxGeometry relative="1" as="geometry" />
        </mxCell>
        <mxCell id="nXKrIPr9yyu7svm2SS0Z-29" value="Create feature branch&lt;br&gt;......" style="whiteSpace=wrap;html=1;fontSize=14;" vertex="1" parent="1">
          <mxGeometry x="422" y="233" width="275" height="57" as="geometry" />
        </mxCell>
        <mxCell id="nXKrIPr9yyu7svm2SS0Z-64" style="edgeStyle=orthogonalEdgeStyle;rounded=0;orthogonalLoop=1;jettySize=auto;html=1;fontSize=14;" edge="1" parent="1" source="nXKrIPr9yyu7svm2SS0Z-30" target="nXKrIPr9yyu7svm2SS0Z-62">
          <mxGeometry relative="1" as="geometry" />
        </mxCell>
        <mxCell id="nXKrIPr9yyu7svm2SS0Z-30" value="Create feature branch&lt;br&gt;(feature/lcp-app/shaoyingzhu_app_menu)" style="whiteSpace=wrap;html=1;fontSize=14;" vertex="1" parent="1">
          <mxGeometry x="422" y="48" width="273" height="62" as="geometry" />
        </mxCell>
        <mxCell id="nXKrIPr9yyu7svm2SS0Z-40" style="edgeStyle=orthogonalEdgeStyle;rounded=0;orthogonalLoop=1;jettySize=auto;html=1;entryX=0;entryY=0.5;entryDx=0;entryDy=0;fontSize=14;" edge="1" parent="1" source="nXKrIPr9yyu7svm2SS0Z-32" target="nXKrIPr9yyu7svm2SS0Z-38">
          <mxGeometry relative="1" as="geometry" />
        </mxCell>
        <mxCell id="nXKrIPr9yyu7svm2SS0Z-32" value="Test on PFB&lt;br&gt;(feature/lcp-app/shaoyingzhu_app_menu)" style="whiteSpace=wrap;html=1;fontSize=14;" vertex="1" parent="1">
          <mxGeometry x="926" y="50" width="311" height="59" as="geometry" />
        </mxCell>
        <mxCell id="nXKrIPr9yyu7svm2SS0Z-39" style="edgeStyle=orthogonalEdgeStyle;rounded=0;orthogonalLoop=1;jettySize=auto;html=1;fontSize=14;" edge="1" parent="1" source="nXKrIPr9yyu7svm2SS0Z-33" target="nXKrIPr9yyu7svm2SS0Z-38">
          <mxGeometry relative="1" as="geometry" />
        </mxCell>
        <mxCell id="nXKrIPr9yyu7svm2SS0Z-33" value="Test on PFB&lt;br&gt;(feature/lcp-app/zhiqiangni_app_content)" style="whiteSpace=wrap;html=1;fontSize=14;" vertex="1" parent="1">
          <mxGeometry x="928" y="142" width="314" height="60" as="geometry" />
        </mxCell>
        <mxCell id="nXKrIPr9yyu7svm2SS0Z-41" style="edgeStyle=orthogonalEdgeStyle;rounded=0;orthogonalLoop=1;jettySize=auto;html=1;entryX=0;entryY=0.5;entryDx=0;entryDy=0;fontSize=14;" edge="1" parent="1" source="nXKrIPr9yyu7svm2SS0Z-34" target="nXKrIPr9yyu7svm2SS0Z-38">
          <mxGeometry relative="1" as="geometry" />
        </mxCell>
        <mxCell id="nXKrIPr9yyu7svm2SS0Z-34" value="Test on PFB&lt;br&gt;......" style="whiteSpace=wrap;html=1;fontSize=14;" vertex="1" parent="1">
          <mxGeometry x="926" y="236" width="316" height="51" as="geometry" />
        </mxCell>
        <mxCell id="nXKrIPr9yyu7svm2SS0Z-75" value="" style="edgeStyle=orthogonalEdgeStyle;rounded=0;orthogonalLoop=1;jettySize=auto;html=1;fontSize=14;" edge="1" parent="1" source="nXKrIPr9yyu7svm2SS0Z-38" target="nXKrIPr9yyu7svm2SS0Z-73">
          <mxGeometry relative="1" as="geometry" />
        </mxCell>
        <mxCell id="nXKrIPr9yyu7svm2SS0Z-38" value="Merge to release branch" style="whiteSpace=wrap;html=1;fontSize=14;" vertex="1" parent="1">
          <mxGeometry x="1321" y="141" width="147" height="61" as="geometry" />
        </mxCell>
        <mxCell id="nXKrIPr9yyu7svm2SS0Z-45" style="edgeStyle=orthogonalEdgeStyle;rounded=0;orthogonalLoop=1;jettySize=auto;html=1;fontSize=14;" edge="1" parent="1" source="nXKrIPr9yyu7svm2SS0Z-42" target="nXKrIPr9yyu7svm2SS0Z-44">
          <mxGeometry relative="1" as="geometry" />
        </mxCell>
        <mxCell id="nXKrIPr9yyu7svm2SS0Z-42" value="Test on PFB&amp;nbsp;&lt;br&gt;&lt;span style=&quot;font-size: 12px;&quot;&gt;(feature/lcp-app)&lt;/span&gt;" style="whiteSpace=wrap;html=1;fontSize=14;" vertex="1" parent="1">
          <mxGeometry x="1711" y="141" width="147" height="61" as="geometry" />
        </mxCell>
        <mxCell id="nXKrIPr9yyu7svm2SS0Z-48" style="edgeStyle=orthogonalEdgeStyle;rounded=0;orthogonalLoop=1;jettySize=auto;html=1;fontSize=14;exitX=1;exitY=0.5;exitDx=0;exitDy=0;" edge="1" parent="1" source="nXKrIPr9yyu7svm2SS0Z-56" target="nXKrIPr9yyu7svm2SS0Z-47">
          <mxGeometry relative="1" as="geometry" />
        </mxCell>
        <mxCell id="nXKrIPr9yyu7svm2SS0Z-57" style="edgeStyle=orthogonalEdgeStyle;rounded=0;orthogonalLoop=1;jettySize=auto;html=1;fontSize=14;" edge="1" parent="1" source="nXKrIPr9yyu7svm2SS0Z-44" target="nXKrIPr9yyu7svm2SS0Z-56">
          <mxGeometry relative="1" as="geometry" />
        </mxCell>
        <mxCell id="nXKrIPr9yyu7svm2SS0Z-44" value="deploy to live" style="whiteSpace=wrap;html=1;fontSize=14;" vertex="1" parent="1">
          <mxGeometry x="1932" y="141" width="147" height="61" as="geometry" />
        </mxCell>
        <mxCell id="nXKrIPr9yyu7svm2SS0Z-47" value="End" style="ellipse;whiteSpace=wrap;html=1;fontSize=14;" vertex="1" parent="1">
          <mxGeometry x="2378" y="141" width="120" height="60" as="geometry" />
        </mxCell>
        <mxCell id="nXKrIPr9yyu7svm2SS0Z-50" value="" style="shape=curlyBracket;whiteSpace=wrap;html=1;rounded=1;fontSize=14;" vertex="1" parent="1">
          <mxGeometry x="1912" y="7" width="20" height="120" as="geometry" />
        </mxCell>
        <mxCell id="nXKrIPr9yyu7svm2SS0Z-51" value="" style="shape=curlyBracket;whiteSpace=wrap;html=1;rounded=1;flipH=1;fontSize=14;" vertex="1" parent="1">
          <mxGeometry x="2308" y="10" width="20" height="120" as="geometry" />
        </mxCell>
        <mxCell id="nXKrIPr9yyu7svm2SS0Z-54" value="1. acquire lock" style="text;html=1;align=center;verticalAlign=middle;resizable=0;points=[];autosize=1;strokeColor=none;fillColor=none;fontSize=14;" vertex="1" parent="1">
          <mxGeometry x="1937" y="14" width="108" height="29" as="geometry" />
        </mxCell>
        <mxCell id="nXKrIPr9yyu7svm2SS0Z-55" value="2. release to live" style="text;html=1;align=center;verticalAlign=middle;resizable=0;points=[];autosize=1;strokeColor=none;fillColor=none;fontSize=14;" vertex="1" parent="1">
          <mxGeometry x="2016" y="43" width="120" height="29" as="geometry" />
        </mxCell>
        <mxCell id="nXKrIPr9yyu7svm2SS0Z-56" value="Merge to master" style="whiteSpace=wrap;html=1;fontSize=14;" vertex="1" parent="1">
          <mxGeometry x="2150" y="141" width="147" height="61" as="geometry" />
        </mxCell>
        <mxCell id="nXKrIPr9yyu7svm2SS0Z-60" value="3. merge to master" style="text;html=1;align=center;verticalAlign=middle;resizable=0;points=[];autosize=1;strokeColor=none;fillColor=none;fontSize=14;" vertex="1" parent="1">
          <mxGeometry x="2077" y="72" width="136" height="29" as="geometry" />
        </mxCell>
        <mxCell id="nXKrIPr9yyu7svm2SS0Z-61" value="4. release lock" style="text;html=1;align=center;verticalAlign=middle;resizable=0;points=[];autosize=1;strokeColor=none;fillColor=none;fontSize=14;" vertex="1" parent="1">
          <mxGeometry x="2173" y="101" width="108" height="29" as="geometry" />
        </mxCell>
        <mxCell id="nXKrIPr9yyu7svm2SS0Z-65" style="edgeStyle=orthogonalEdgeStyle;rounded=0;orthogonalLoop=1;jettySize=auto;html=1;fontSize=14;" edge="1" parent="1" source="nXKrIPr9yyu7svm2SS0Z-62" target="nXKrIPr9yyu7svm2SS0Z-32">
          <mxGeometry relative="1" as="geometry" />
        </mxCell>
        <mxCell id="nXKrIPr9yyu7svm2SS0Z-62" value="deploy to test" style="whiteSpace=wrap;html=1;fontSize=14;" vertex="1" parent="1">
          <mxGeometry x="744" y="49" width="132" height="61" as="geometry" />
        </mxCell>
        <mxCell id="nXKrIPr9yyu7svm2SS0Z-68" value="" style="edgeStyle=orthogonalEdgeStyle;rounded=0;orthogonalLoop=1;jettySize=auto;html=1;fontSize=14;" edge="1" parent="1" source="nXKrIPr9yyu7svm2SS0Z-66" target="nXKrIPr9yyu7svm2SS0Z-33">
          <mxGeometry relative="1" as="geometry" />
        </mxCell>
        <mxCell id="nXKrIPr9yyu7svm2SS0Z-66" value="deploy to test" style="whiteSpace=wrap;html=1;fontSize=14;" vertex="1" parent="1">
          <mxGeometry x="744" y="141" width="132" height="61" as="geometry" />
        </mxCell>
        <mxCell id="nXKrIPr9yyu7svm2SS0Z-72" value="" style="edgeStyle=orthogonalEdgeStyle;rounded=0;orthogonalLoop=1;jettySize=auto;html=1;fontSize=14;" edge="1" parent="1" source="nXKrIPr9yyu7svm2SS0Z-70" target="nXKrIPr9yyu7svm2SS0Z-34">
          <mxGeometry relative="1" as="geometry" />
        </mxCell>
        <mxCell id="nXKrIPr9yyu7svm2SS0Z-70" value="deploy to test" style="whiteSpace=wrap;html=1;fontSize=14;" vertex="1" parent="1">
          <mxGeometry x="742" y="231" width="132" height="61" as="geometry" />
        </mxCell>
        <mxCell id="nXKrIPr9yyu7svm2SS0Z-74" value="" style="edgeStyle=orthogonalEdgeStyle;rounded=0;orthogonalLoop=1;jettySize=auto;html=1;fontSize=14;" edge="1" parent="1" source="nXKrIPr9yyu7svm2SS0Z-73" target="nXKrIPr9yyu7svm2SS0Z-42">
          <mxGeometry relative="1" as="geometry" />
        </mxCell>
        <mxCell id="nXKrIPr9yyu7svm2SS0Z-73" value="deploy to test" style="whiteSpace=wrap;html=1;fontSize=14;" vertex="1" parent="1">
          <mxGeometry x="1516" y="141" width="132" height="61" as="geometry" />
        </mxCell>
      </root>
    </mxGraphModel>
  </diagram>
</mxfile>
